<svg xmlns="http://www.w3.org/2000/svg" viewBox="0 0 24 24">
  <path fill="#E01E5A" d="M5.04 15.16a2.5 2.5 0 1 1-2.5-2.5h2.5v2.5Zm1.26 0a2.5 2.5 0 0 1 5 0v6.26a2.5 2.5 0 1 1-5 0v-6.26Z"/>
  <path fill="#36C5F0" d="M8.8 5.04a2.5 2.5 0 1 1 2.5-2.5v2.5H8.8Zm0 1.26a2.5 2.5 0 0 1 0 5H2.54a2.5 2.5 0 1 1 0-5H8.8Z"/>
  <path fill="#2EB67D" d="M18.96 8.8a2.5 2.5 0 1 1 2.5 2.5h-2.5V8.8Zm-1.26 0a2.5 2.5 0 0 1-5 0V2.54a2.5 2.5 0 1 1 5 0V8.8Z"/>
  <path fill="#ECB22E" d="M15.2 18.96a2.5 2.5 0 1 1-2.5 2.5v-2.5h2.5Zm0-1.26a2.5 2.5 0 0 1 0-5h6.26a2.5 2.5 0 1 1 0 5H15.2Z"/>
</svg>
